<svg width="25" height="24" viewBox="0 0 25 24" fill="none" xmlns="http://www.w3.org/2000/svg">
<path d="M14.8194 11.9983L23.4123 3.42536C23.7886 3.04906 24 2.53869 24 2.00653C24 1.47437 23.7886 0.963996 23.4123 0.587699C23.036 0.211402 22.5256 0 21.9935 0C21.4613 0 20.9509 0.211402 20.5746 0.587699L12.0017 9.18062L3.42877 0.587699C3.05247 0.211402 2.5421 -3.96493e-09 2.00994 0C1.47778 3.96494e-09 0.967407 0.211402 0.591109 0.587699C0.214812 0.963996 0.00341039 1.47437 0.00341039 2.00653C0.00341039 2.53869 0.214812 3.04906 0.591109 3.42536L9.18403 11.9983L0.591109 20.5712C0.403807 20.757 0.255141 20.978 0.153688 21.2215C0.0522339 21.4651 0 21.7263 0 21.9901C0 22.2539 0.0522339 22.5151 0.153688 22.7586C0.255141 23.0021 0.403807 23.2231 0.591109 23.4089C0.776882 23.5962 0.997902 23.7449 1.24142 23.8463C1.48494 23.9478 1.74613 24 2.00994 24C2.27375 24 2.53494 23.9478 2.77846 23.8463C3.02198 23.7449 3.243 23.5962 3.42877 23.4089L12.0017 14.816L20.5746 23.4089C20.7604 23.5962 20.9814 23.7449 21.2249 23.8463C21.4685 23.9478 21.7297 24 21.9935 24C22.2573 24 22.5185 23.9478 22.762 23.8463C23.0055 23.7449 23.2265 23.5962 23.4123 23.4089C23.5996 23.2231 23.7483 23.0021 23.8497 22.7586C23.9512 22.5151 24.0034 22.2539 24.0034 21.9901C24.0034 21.7263 23.9512 21.4651 23.8497 21.2215C23.7483 20.978 23.5996 20.757 23.4123 20.5712L14.8194 11.9983Z" fill="white"/>
</svg>
